<svg xmlns="http://www.w3.org/2000/svg" viewBox="0 0 64 64" width="64" height="64">
  <rect width="64" height="64" rx="14" fill="#2f6df6"/>
  <path d="M16 20h32v17a4 4 0 0 1-4 4H20a4 4 0 0 1-4-4V20z" fill="#fff" opacity="0.18"/>
  <path d="M16 33h9l3 5h8l3-5h9" fill="none" stroke="#fff" stroke-width="3" stroke-linecap="round" stroke-linejoin="round"/>
  <path d="M16 33 22 19a3 3 0 0 1 2.8-2h14.4A3 3 0 0 1 42 19l6 14" fill="none" stroke="#fff" stroke-width="3" stroke-linecap="round" stroke-linejoin="round"/>
  <path d="m27 25 4 4 7-8" fill="none" stroke="#fff" stroke-width="3.2" stroke-linecap="round" stroke-linejoin="round"/>
</svg>
